<svg
	xmlns="http://www.w3.org/2000/svg" 
	viewBox="0 0 350.69 71.17">
    <style>
        .cls-1 {
            fill: #05142c;
        }
        .cls-2 {
            fill: #5130e9;
        }
        .cls-3 {
            fill: #b29ff2;
        }
    </style>
	<polygon class="cls-1" points="157.08 11.59 146.91 34.65 135.87 59.68 123.79 59.68 112.75 34.65 102.58 11.59 115.98 11.59 129.83 47.4 143.69 11.59 157.08 11.59"/>
	<path class="cls-1" d="M168.86,60.78q-9.33,0-14-5t-4.7-14.7q0-10.42,4.78-15t14-4.55a23.25,23.25,0,0,1,10.4,2.08A13.76,13.76,0,0,1,185.6,30a24.7,24.7,0,0,1,2.16,11.08q0,9.7-4.89,14.7T168.86,60.78Zm0-8.68a7.54,7.54,0,0,0,4.49-1.28,7.75,7.75,0,0,0,2.7-3.72,17.26,17.26,0,0,0,.91-6,18.41,18.41,0,0,0-.91-6.45,6.48,6.48,0,0,0-2.74-3.43,8.78,8.78,0,0,0-4.45-1.06,8.43,8.43,0,0,0-4.52,1.1,6.46,6.46,0,0,0-2.59,3.46,19.65,19.65,0,0,0-.84,6.38q0,5.55,1.94,8.28C164.13,51.18,166.14,52.1,168.86,52.1Z"/>
	<path class="cls-1" d="M223.76,60.63a23.29,23.29,0,0,1-7.44-1.17,18,18,0,0,1-6.2-3.52A16.11,16.11,0,0,1,205.89,50a21.17,21.17,0,0,1-1.54-8.36,24.46,24.46,0,0,1,1.46-8.83,17.25,17.25,0,0,1,4.05-6.28A16.86,16.86,0,0,1,216,22.78a23,23,0,0,1,7.73-1.24,31.64,31.64,0,0,1,6.17.62,25.64,25.64,0,0,1,5.58,1.72v9.39a43.05,43.05,0,0,0-5-1.94,16.36,16.36,0,0,0-5-.77,11.28,11.28,0,0,0-7.4,2.31q-2.81,2.31-2.81,7.52c0,3.66.83,6.43,2.48,8.29s4.4,2.78,8.24,2.78a14.53,14.53,0,0,0,5.22-1,33.28,33.28,0,0,0,4.34-2v9.31a26.13,26.13,0,0,1-5.33,2.06A25.52,25.52,0,0,1,223.76,60.63Z"/>
	<path class="cls-1" d="M271.37,28.73a10.65,10.65,0,0,0-2.88-3.67,13.25,13.25,0,0,0-3.91-2.19,20.41,20.41,0,0,0-4.23-1,27.49,27.49,0,0,0-3.86-.29c-3.31,0-13.54,1.56-14.81,2.33v9.49c1.36-1.06,9.61-3,11.75-3a10.75,10.75,0,0,1,6.09,1.47,5.41,5.41,0,0,1,2.15,4.79v3c-.36-.2-.73-.4-1.13-.59a19.9,19.9,0,0,0-4.2-1.36,22.43,22.43,0,0,0-4.81-.51,17.41,17.41,0,0,0-7.37,1.37,9.43,9.43,0,0,0-4.34,3.88,11.9,11.9,0,0,0-1.42,5.9,13,13,0,0,0,1.24,6,9.54,9.54,0,0,0,3.47,3.81,15.39,15.39,0,0,0,5.17,2,31.72,31.72,0,0,0,6.31.61,45.48,45.48,0,0,0,9.59-.87,13.07,13.07,0,0,0,6.09-2.76,6.42,6.42,0,0,0,2.12-5l.07-17.89A12.47,12.47,0,0,0,271.37,28.73Zm-11.2,24a18.22,18.22,0,0,1-5.21.51,7,7,0,0,1-2.81-.58A5,5,0,0,1,250,51a4,4,0,0,1-.8-2.45,3.59,3.59,0,0,1,1.64-3.27,10.05,10.05,0,0,1,5.21-1,18.59,18.59,0,0,1,4.38.5c.44.11.83.26,1.24.39v5.58A2,2,0,0,1,260.17,52.72Z"/>
	<path class="cls-1" d="M275.36,25.69A26.81,26.81,0,0,1,279,24.2a45.86,45.86,0,0,1,5-1.35q2.7-.59,5.43-1a39.19,39.19,0,0,1,5.07-.36,24.79,24.79,0,0,1,8.46,1.27,10.42,10.42,0,0,1,5.36,4.12,14,14,0,0,1,1.86,7.73v25H299.29V36.85a8,8,0,0,0-.4-2.55,5.38,5.38,0,0,0-1.21-2A5.44,5.44,0,0,0,295.49,31a10.57,10.57,0,0,0-3.35-.47,14.28,14.28,0,0,0-3.36.4,13,13,0,0,0-2.55.84V59.68H275.36Z"/>
	<path class="cls-1" d="M331.8,60.78q-9.33,0-14-5t-4.7-14.7q0-10.42,4.77-15t14-4.55a23.28,23.28,0,0,1,10.4,2.08A13.76,13.76,0,0,1,348.54,30a24.84,24.84,0,0,1,2.15,11.08q0,9.7-4.88,14.7T331.8,60.78Zm0-8.68a7.56,7.56,0,0,0,4.49-1.28A7.75,7.75,0,0,0,339,47.1a17.5,17.5,0,0,0,.91-6,18.65,18.65,0,0,0-.91-6.45,6.48,6.48,0,0,0-2.74-3.43,8.8,8.8,0,0,0-4.45-1.06,8.4,8.4,0,0,0-4.52,1.1,6.41,6.41,0,0,0-2.59,3.46,19.65,19.65,0,0,0-.84,6.38c0,3.7.65,6.46,1.93,8.28A6.88,6.88,0,0,0,331.8,52.1Z"/>
	<rect class="cls-1" x="190.66" y="11.69" width="10.79" height="47.99" />
	<g>
		<g>
			<path class="cls-2" d="M47.5,53.28A11.93,11.93,0,0,1,37.17,71.17H12A12,12,0,0,1,1.43,53.5a.94.94,0,0,1,.12-.22L14.19,31.37a11.93,11.93,0,0,1,20.66,0Z"/>
			<path class="cls-3" d="M66.45,71.17H50.57a18.72,18.72,0,0,0,2.13-3,17.75,17.75,0,0,0,0-17.93L40.05,28.37a17.76,17.76,0,0,0-15.53-9,18,18,0,0,0-3.62.36L28.83,6A12,12,0,0,1,49.66,6L76.87,53.14A12,12,0,0,1,66.45,71.17Z"/>
		</g>
		<rect class="groupExpander" opacity="0" x="0" y="0" width="79" height="100%" rx="6" />
	</g>
</svg>
