<svg width="131" height="26" viewBox="0 0 131 26" fill="none" xmlns="http://www.w3.org/2000/svg">
    <path d="M58.383 4.38135L54.6131 12.801L50.5207 21.9399H46.0428L41.9505 12.801L38.1806 4.38135H43.1478L48.2818 17.4563L53.4195 4.38135H58.383Z" fill="white"/>
    <path d="M62.7496 22.3416C60.4439 22.3416 58.714 21.7331 57.56 20.516C56.4059 19.2989 55.8252 17.5098 55.8177 15.1487C55.8177 12.6124 56.4084 10.7868 57.5896 9.67194C58.7709 8.55711 60.5007 8.00334 62.7792 8.01065C64.1065 7.96786 65.4259 8.22777 66.6343 8.77009C67.6501 9.27153 68.4667 10.0926 68.9548 11.1032C69.5352 12.3728 69.8092 13.7574 69.7555 15.1487C69.7555 17.5098 69.1513 19.2989 67.9429 20.516C66.7344 21.7331 65.0033 22.3416 62.7496 22.3416ZM62.7496 19.1723C63.3406 19.1939 63.9233 19.0303 64.4139 18.705C64.8793 18.3624 65.2283 17.8888 65.4148 17.3468C65.6577 16.6419 65.7719 15.9002 65.7521 15.156C65.7827 14.3575 65.6685 13.56 65.4148 12.801C65.2345 12.2799 64.8753 11.837 64.3991 11.5487C63.8936 11.2783 63.3245 11.1448 62.7496 11.1616C62.1639 11.1381 61.5833 11.2772 61.0741 11.5633C60.6163 11.8633 60.2773 12.3094 60.114 12.8266C59.8809 13.5809 59.7757 14.368 59.8026 15.156C59.8026 16.507 60.0423 17.5147 60.5217 18.1792C60.9962 18.8364 61.7413 19.1723 62.7496 19.1723Z" fill="white"/>
    <path d="M83.1002 22.2868C82.1635 22.2927 81.232 22.1484 80.3423 21.8596C79.4969 21.5864 78.7155 21.1494 78.0441 20.5744C77.36 19.979 76.8236 19.2371 76.4761 18.4056C76.0782 17.4366 75.884 16.3982 75.9052 15.3532C75.8828 14.2549 76.0662 13.1619 76.4464 12.1292C76.7707 11.266 77.2832 10.4833 77.9477 9.83622C78.5975 9.22384 79.3739 8.75681 80.2237 8.46702C81.1455 8.15592 82.1147 8.00279 83.0891 8.01427C83.8572 8.01578 84.6232 8.09161 85.3762 8.24065C86.0877 8.37172 86.7817 8.58242 87.4446 8.86865V12.2971C86.8424 12.0233 86.2234 11.7867 85.5912 11.5888C84.9919 11.401 84.3667 11.3061 83.7378 11.3077C82.751 11.2608 81.7792 11.5596 80.9947 12.1511C80.3003 12.7134 79.9531 13.6286 79.9531 14.8968C79.9531 16.2331 80.2608 17.2445 80.8724 17.9236C81.484 18.6027 82.5034 18.9386 83.9268 18.9386C84.5891 18.9352 85.2451 18.8114 85.8618 18.5735C86.4152 18.3684 86.9528 18.1244 87.4706 17.8433V21.2426C86.8419 21.5637 86.1794 21.8159 85.4948 21.9947C84.7126 22.1923 83.9078 22.2905 83.1002 22.2868V22.2868Z" fill="white"/>
    <path d="M100.749 10.6394C100.498 10.1205 100.133 9.66289 99.681 9.29942C99.2474 8.95376 98.7573 8.68336 98.2316 8.49981C97.7236 8.32348 97.198 8.20108 96.6636 8.13469C96.1897 8.06633 95.7116 8.03094 95.2327 8.02881C94.0058 8.02881 90.2136 8.5984 89.7429 8.87954V12.3445C90.247 11.9575 93.3052 11.2492 94.0984 11.2492C94.8883 11.2033 95.6742 11.3902 96.3559 11.7859C96.6286 11.9868 96.8448 12.2528 96.9842 12.5587C97.1237 12.8647 97.1817 13.2006 97.1529 13.5348V14.6302C97.0194 14.5571 96.8823 14.4841 96.734 14.4147C96.2354 14.1929 95.7132 14.0263 95.1771 13.9182C94.5913 13.793 93.9935 13.7306 93.3941 13.732C92.4574 13.7013 91.5252 13.872 90.6622 14.2322C89.9877 14.5255 89.4246 15.0213 89.0534 15.6489C88.6919 16.31 88.5105 17.0522 88.527 17.8031C88.5009 18.5589 88.6585 19.31 88.9867 19.9938C89.2778 20.5649 89.7228 21.0462 90.273 21.3849C90.8616 21.7405 91.511 21.988 92.1894 22.1151C92.9596 22.2661 93.7432 22.3407 94.5284 22.3378C95.7215 22.3562 96.9131 22.2497 98.0833 22.0202C98.9118 21.8828 99.6897 21.5355 100.341 21.0125C100.599 20.7832 100.804 20.501 100.939 20.1855C101.075 19.8701 101.139 19.5292 101.127 19.1869L101.153 12.6549C101.176 11.9615 101.037 11.2721 100.749 10.6394V10.6394ZM96.5969 19.4023C95.9656 19.5556 95.3151 19.6183 94.6656 19.5885C94.3073 19.5895 93.9526 19.5174 93.624 19.3767C93.3066 19.251 93.0308 19.0412 92.827 18.7706C92.6306 18.5128 92.5264 18.1983 92.5304 17.8761C92.5138 17.6417 92.5615 17.4072 92.6684 17.1971C92.7754 16.9871 92.9377 16.8092 93.1384 16.6821C93.7373 16.3923 94.4043 16.2662 95.0696 16.317C95.6163 16.3142 96.1613 16.3755 96.6932 16.4996C96.8563 16.5397 97.0009 16.5945 97.1529 16.642V18.6793C97.1557 18.8433 97.1023 19.0035 97.0015 19.1339C96.9006 19.2644 96.7581 19.3577 96.5969 19.3986V19.4023Z" fill="white"/>
    <path d="M102.228 9.52961C102.663 9.31597 103.114 9.13414 103.577 8.98558C104.185 8.78702 104.804 8.62245 105.43 8.49267C106.097 8.34905 106.768 8.22735 107.443 8.12755C108.066 8.04372 108.694 7.99982 109.322 7.9961C110.387 7.9705 111.448 8.12741 112.458 8.45981C113.272 8.7298 113.971 9.2591 114.445 9.9641C114.947 10.8195 115.187 11.7998 115.135 12.7865V21.9145H111.098V13.6043C111.1 13.2881 111.05 12.9737 110.95 12.6733C110.856 12.4004 110.703 12.1511 110.501 11.943C110.273 11.7238 109.994 11.5611 109.689 11.4684C109.288 11.3459 108.868 11.288 108.448 11.2968C108.028 11.2967 107.61 11.3457 107.202 11.4428C106.877 11.5127 106.56 11.6154 106.257 11.7495V21.94H102.228V9.52961Z" fill="white"/>
    <path d="M123.149 22.3415C120.843 22.3415 119.114 21.733 117.959 20.5159C116.805 19.2988 116.225 17.5098 116.217 15.1487C116.217 12.6123 116.807 10.7867 117.985 9.67186C119.164 8.55703 120.894 8.00327 123.175 8.01057C124.502 7.96818 125.822 8.22807 127.03 8.77002C128.047 9.2708 128.865 10.092 129.354 11.1031C129.932 12.3735 130.204 13.7578 130.151 15.1487C130.151 17.5098 129.548 19.2988 128.342 20.5159C127.136 21.733 125.405 22.3415 123.149 22.3415ZM123.149 19.1723C123.74 19.1934 124.323 19.0298 124.813 18.7049C125.28 18.3628 125.631 17.8892 125.818 17.3467C126.059 16.6414 126.173 15.9 126.155 15.156C126.184 14.3575 126.07 13.5604 125.818 12.8009C125.638 12.2798 125.279 11.8369 124.802 11.5486C124.297 11.2786 123.728 11.1451 123.153 11.1615C122.567 11.1374 121.986 11.2766 121.477 11.5632C121.018 11.8621 120.679 12.3086 120.517 12.8265C120.284 13.5809 120.179 14.3679 120.206 15.156C120.206 16.5069 120.447 17.5146 120.921 18.1791C121.178 18.5153 121.517 18.7823 121.906 18.9559C122.296 19.1294 122.723 19.2038 123.149 19.1723Z" fill="white"/>
    <path d="M74.8302 4.41797H70.8305V21.9401H74.8302V4.41797Z" fill="white"/>
    <path fill-rule="evenodd" clip-rule="evenodd" d="M17.6053 19.4679C17.993 20.13 18.197 20.8809 18.1967 21.6452C18.1965 22.4095 17.9922 23.1603 17.6042 23.8221C17.2162 24.484 16.6582 25.0337 15.9862 25.416C15.3143 25.7982 14.5521 25.9996 13.7762 25.9999H4.44601C3.67724 25.9995 2.92169 25.8029 2.25305 25.4292C1.58441 25.0555 1.02551 24.5175 0.630857 23.8677C0.236205 23.2178 0.0192761 22.4783 0.00122645 21.7213C-0.0168232 20.9643 0.164623 20.2156 0.527868 19.5482C0.53899 19.5196 0.55395 19.4926 0.572351 19.4679L5.25781 11.4681C5.64603 10.8062 6.20425 10.2566 6.8764 9.87453C7.54854 9.49242 8.31093 9.29126 9.08699 9.29126C9.86305 9.29126 10.6254 9.49242 11.2976 9.87453C11.9697 10.2566 12.528 10.8062 12.9162 11.4681L17.6053 19.4679Z" fill="white"/>
    <path fill-rule="evenodd" clip-rule="evenodd" d="M24.6298 26H18.7434C19.0424 25.6613 19.3069 25.2944 19.5329 24.9046C20.1229 23.9116 20.4338 22.7818 20.4338 21.6313C20.4338 20.4808 20.1229 19.351 19.5329 18.358L14.8437 10.3729C14.267 9.37088 13.4296 8.5383 12.4179 7.96076C11.4061 7.38322 10.2564 7.08155 9.087 7.08678C8.63635 7.08585 8.18676 7.12989 7.74512 7.21822L10.6847 2.20513C11.0739 1.53517 11.636 0.978393 12.3139 0.591165C12.9919 0.203936 13.7617 0 14.5453 0C15.329 0 16.0988 0.203936 16.7768 0.591165C17.4547 0.978393 18.0168 1.53517 18.406 2.20513L28.4924 19.4169C28.886 20.0839 29.0938 20.8416 29.0948 21.6132C29.0957 22.3847 28.8898 23.1429 28.4979 23.8109C28.1059 24.479 27.5418 25.0332 26.8626 25.4176C26.1834 25.802 25.4132 26.0029 24.6298 26V26Z" fill="white"/>
    </svg>
    